<svg xmlns="http://www.w3.org/2000/svg">
  <defs>
    <symbol id="icon-Burger" viewBox="0 0 32 32">
      <path stroke-width="1.6" d="M0 6.4h32M0 16h32M0 25.6h32" />
    </symbol>
    <symbol id="icon-check-mark" viewBox="0 0 32 32">
      <path stroke-linejoin="round" stroke-linecap="round" stroke-width="6.4" d="M6.742 3.2 23.567 16 6.742 28.8" />
    </symbol>
    <symbol id="icon-close-menu-btn" viewBox="0 0 32 32">
      <path stroke-width="2" d="m2.519 2 26.963 28M2 29.481 30 2.518" />
    </symbol>
    <symbol id="icon-right-arrow" viewBox="0 0 32 32">
      <path d="m19.902 29.045 11.429-11.429a2.286 2.286 0 0 0 0-3.233L19.902 2.954a2.286 2.286 0 1 0-3.233 3.233l7.527 7.527H2.286a2.286 2.286 0 0 0 0 4.572h21.91l-7.527 7.527c-.446.446-.669 1.031-.669 1.616s.223 1.17.669 1.616c.893.893 2.34.893 3.233 0z" />
    </symbol>
    <symbol id="icon-bracket-red" viewBox="0 0 26 32">
      <path fill="none" stroke="#d41443" style="stroke:var(--color1, #d41443)" stroke-linejoin="round" stroke-linecap="round" stroke-width="6.4" d="M5.172 3.2 19.341 16 5.172 28.8"/>
    </symbol>
    <symbol id="icon-bracket-white" viewBox="0 0 26 32">
      <path fill="none" stroke="#ffffff" style="stroke:var(--color1, #ffffff)" stroke-linejoin="round" stroke-linecap="round" stroke-width="6.4" d="M5.172 3.2 19.341 16 5.172 28.8"/>
    <symbol id="menu-close" viewBox="0 0 32 32">
      <path d="M23.733 10.304 22.229 8.8l-5.963 5.963L10.303 8.8l-1.504 1.504 5.963 5.963-5.963 5.963 1.504 1.504 5.963-5.963 5.963 5.963 1.504-1.504-5.963-5.963 5.963-5.963z"/>
    </symbol>

    <symbol id="arrowright" viewBox="0 0 24 24">
      <path d="M8.578 16.594l4.594-4.594-4.594-4.594 1.406-1.406 6 6-6 6z"></path>
    </symbol>
   <symbol id="menu_24px" viewBox="0 0 49 32">
      <path d="M0 2.462v-2.462h49.231v2.462h-49.231zM0 17.231h49.231v-2.462h-49.231v2.462zM0 32h49.231v-2.462h-49.231v2.462z"></path>
    </symbol>
    <symbol id="close_24px" viewBox="0 0 32 32">
      <path d="M32 3.223l-3.223-3.223-12.777 12.777-12.777-12.777-3.223 3.223 12.777 12.777-12.777 12.777 3.223 3.223 12.777-12.777 12.777 12.777 3.223-3.223-12.777-12.777 12.777-12.777z"></path>
    </symbol>
  </defs>
</svg>