<svg xmlns="http://www.w3.org/2000/svg">
  <defs>
    <symbol id="icon-Burger" viewBox="0 0 32 32">
      <path stroke-width="1.6" d="M0 6.4h32M0 16h32M0 25.6h32" />
    </symbol>
    <symbol id="icon-check-mark" viewBox="0 0 32 32">
      <path stroke-linejoin="round" stroke-linecap="round" stroke-width="6.4" d="M6.742 3.2 23.567 16 6.742 28.8" />
    </symbol>
    <symbol id="icon-close-menu-btn" viewBox="0 0 32 32">
      <path stroke-width="2" d="m2.519 2 26.963 28M2 29.481 30 2.518" />
    </symbol>
    <symbol id="icon-right-arrow" viewBox="0 0 32 32">
      <path
        d="m19.902 29.045 11.429-11.429a2.286 2.286 0 0 0 0-3.233L19.902 2.954a2.286 2.286 0 1 0-3.233 3.233l7.527 7.527H2.286a2.286 2.286 0 0 0 0 4.572h21.91l-7.527 7.527c-.446.446-.669 1.031-.669 1.616s.223 1.17.669 1.616c.893.893 2.34.893 3.233 0z" />
    </symbol>
    <symbol id="icon-home" viewBox="0 0 32 32">
      <path d="M31.599 16.766c0.58-0.595 0.524-1.507-0.125-2.037l-14.301-11.673c-0.649-0.53-1.69-0.518-2.325 0.025l-14.35 12.27c-0.635 0.543-0.667 1.454-0.069 2.034l0.36 0.35c0.597 0.579 1.562 0.648 2.154 0.154l1.072-0.896v13.116c0 0.805 0.699 1.456 1.561 1.456h5.594c0.862 0 1.561-0.651 1.561-1.456v-9.176h7.135v9.176c-0.012 0.804 0.604 1.455 1.466 1.455h5.928c0.862 0 1.561-0.651 1.561-1.456v-12.93c0 0 0.296 0.242 0.662 0.542s1.131 0.059 1.711-0.536l0.407-0.417z"></path>
    </symbol>
  </defs>
</svg>